<svg id="visual" viewBox="0 0 1920 1024" width="1920" height="1024" xmlns="http://www.w3.org/2000/svg" xmlns:xlink="http://www.w3.org/1999/xlink" version="1.1"><path d="M0 876L29.2 877.8C58.3 879.7 116.7 883.3 174.8 889.3C233 895.3 291 903.7 349.2 909.5C407.3 915.3 465.7 918.7 523.8 917.3C582 916 640 910 698.2 906.3C756.3 902.7 814.7 901.3 872.8 904C931 906.7 989 913.3 1047.2 913.8C1105.3 914.3 1163.7 908.7 1221.8 896.3C1280 884 1338 865 1396.2 858.3C1454.3 851.7 1512.7 857.3 1570.8 855.8C1629 854.3 1687 845.7 1745.2 851.7C1803.3 857.7 1861.7 878.3 1890.8 888.7L1920 899L1920 1025L1890.8 1025C1861.7 1025 1803.3 1025 1745.2 1025C1687 1025 1629 1025 1570.8 1025C1512.7 1025 1454.3 1025 1396.2 1025C1338 1025 1280 1025 1221.8 1025C1163.7 1025 1105.3 1025 1047.2 1025C989 1025 931 1025 872.8 1025C814.7 1025 756.3 1025 698.2 1025C640 1025 582 1025 523.8 1025C465.7 1025 407.3 1025 349.2 1025C291 1025 233 1025 174.8 1025C116.7 1025 58.3 1025 29.2 1025L0 1025Z" fill="#6600ff"></path><path d="M0 881L29.2 883.8C58.3 886.7 116.7 892.3 174.8 896.8C233 901.3 291 904.7 349.2 907.8C407.3 911 465.7 914 523.8 913.5C582 913 640 909 698.2 912.2C756.3 915.3 814.7 925.7 872.8 927.5C931 929.3 989 922.7 1047.2 914.7C1105.3 906.7 1163.7 897.3 1221.8 887.7C1280 878 1338 868 1396.2 874.8C1454.3 881.7 1512.7 905.3 1570.8 909.8C1629 914.3 1687 899.7 1745.2 888C1803.3 876.3 1861.7 867.7 1890.8 863.3L1920 859L1920 1025L1890.8 1025C1861.7 1025 1803.3 1025 1745.2 1025C1687 1025 1629 1025 1570.8 1025C1512.7 1025 1454.3 1025 1396.2 1025C1338 1025 1280 1025 1221.8 1025C1163.7 1025 1105.3 1025 1047.2 1025C989 1025 931 1025 872.8 1025C814.7 1025 756.3 1025 698.2 1025C640 1025 582 1025 523.8 1025C465.7 1025 407.3 1025 349.2 1025C291 1025 233 1025 174.8 1025C116.7 1025 58.3 1025 29.2 1025L0 1025Z" fill="#3629d9"></path><path d="M0 922L29.2 920C58.3 918 116.7 914 174.8 918.7C233 923.3 291 936.7 349.2 942.5C407.3 948.3 465.7 946.7 523.8 947.5C582 948.3 640 951.7 698.2 945.8C756.3 940 814.7 925 872.8 925.7C931 926.3 989 942.7 1047.2 943.7C1105.3 944.7 1163.7 930.3 1221.8 931.2C1280 932 1338 948 1396.2 949C1454.3 950 1512.7 936 1570.8 923C1629 910 1687 898 1745.2 902.7C1803.3 907.3 1861.7 928.7 1890.8 939.3L1920 950L1920 1025L1890.8 1025C1861.7 1025 1803.3 1025 1745.2 1025C1687 1025 1629 1025 1570.8 1025C1512.7 1025 1454.3 1025 1396.2 1025C1338 1025 1280 1025 1221.8 1025C1163.7 1025 1105.3 1025 1047.2 1025C989 1025 931 1025 872.8 1025C814.7 1025 756.3 1025 698.2 1025C640 1025 582 1025 523.8 1025C465.7 1025 407.3 1025 349.2 1025C291 1025 233 1025 174.8 1025C116.7 1025 58.3 1025 29.2 1025L0 1025Z" fill="#0b2faf"></path><path d="M0 953L29.2 949.7C58.3 946.3 116.7 939.7 174.8 939C233 938.3 291 943.7 349.2 946.2C407.3 948.7 465.7 948.3 523.8 953.2C582 958 640 968 698.2 964.2C756.3 960.3 814.7 942.7 872.8 934.2C931 925.7 989 926.3 1047.2 933C1105.3 939.7 1163.7 952.3 1221.8 957.8C1280 963.3 1338 961.7 1396.2 961.7C1454.3 961.7 1512.7 963.3 1570.8 966.7C1629 970 1687 975 1745.2 968.8C1803.3 962.7 1861.7 945.3 1890.8 936.7L1920 928L1920 1025L1890.8 1025C1861.7 1025 1803.3 1025 1745.2 1025C1687 1025 1629 1025 1570.8 1025C1512.7 1025 1454.3 1025 1396.2 1025C1338 1025 1280 1025 1221.8 1025C1163.7 1025 1105.3 1025 1047.2 1025C989 1025 931 1025 872.8 1025C814.7 1025 756.3 1025 698.2 1025C640 1025 582 1025 523.8 1025C465.7 1025 407.3 1025 349.2 1025C291 1025 233 1025 174.8 1025C116.7 1025 58.3 1025 29.2 1025L0 1025Z" fill="#002c82"></path><path d="M0 979L29.2 981C58.3 983 116.7 987 174.8 989.2C233 991.3 291 991.7 349.2 988.3C407.3 985 465.7 978 523.8 976.8C582 975.7 640 980.3 698.2 982.2C756.3 984 814.7 983 872.8 985.2C931 987.3 989 992.7 1047.2 992.5C1105.3 992.3 1163.7 986.7 1221.8 981.5C1280 976.3 1338 971.7 1396.2 972C1454.3 972.3 1512.7 977.7 1570.8 977.3C1629 977 1687 971 1745.2 972.2C1803.3 973.3 1861.7 981.7 1890.8 985.8L1920 990L1920 1025L1890.8 1025C1861.7 1025 1803.3 1025 1745.2 1025C1687 1025 1629 1025 1570.8 1025C1512.7 1025 1454.3 1025 1396.2 1025C1338 1025 1280 1025 1221.8 1025C1163.7 1025 1105.3 1025 1047.2 1025C989 1025 931 1025 872.8 1025C814.7 1025 756.3 1025 698.2 1025C640 1025 582 1025 523.8 1025C465.7 1025 407.3 1025 349.2 1025C291 1025 233 1025 174.8 1025C116.7 1025 58.3 1025 29.2 1025L0 1025Z" fill="#002152"></path><path d="M0 988L29.2 991.3C58.3 994.7 116.7 1001.3 174.8 999.2C233 997 291 986 349.2 983C407.3 980 465.7 985 523.8 986C582 987 640 984 698.2 988C756.3 992 814.7 1003 872.8 1001.8C931 1000.7 989 987.3 1047.2 985.5C1105.3 983.7 1163.7 993.3 1221.8 998.2C1280 1003 1338 1003 1396.2 1004.8C1454.3 1006.7 1512.7 1010.3 1570.8 1007.7C1629 1005 1687 996 1745.2 994.7C1803.3 993.3 1861.7 999.7 1890.8 1002.8L1920 1006L1920 1025L1890.8 1025C1861.7 1025 1803.3 1025 1745.2 1025C1687 1025 1629 1025 1570.8 1025C1512.7 1025 1454.3 1025 1396.2 1025C1338 1025 1280 1025 1221.8 1025C1163.7 1025 1105.3 1025 1047.2 1025C989 1025 931 1025 872.8 1025C814.7 1025 756.3 1025 698.2 1025C640 1025 582 1025 523.8 1025C465.7 1025 407.3 1025 349.2 1025C291 1025 233 1025 174.8 1025C116.7 1025 58.3 1025 29.2 1025L0 1025Z" fill="#001122"></path></svg>